<mxfile host="app.diagrams.net" modified="2023-11-10T09:58:19.474Z" agent="Mozilla/5.0 (Windows NT 10.0; Win64; x64) AppleWebKit/537.36 (KHTML, like Gecko) Chrome/119.0.0.0 Safari/537.36 Edg/119.0.0.0" etag="h9E3dbvA4sU4pN3-fwbg" version="22.1.0" type="device">
  <diagram name="Seite-1" id="i6jGfShjnSnYsPg9KVX4">
    <mxGraphModel dx="493" dy="1892" grid="1" gridSize="10" guides="1" tooltips="1" connect="1" arrows="1" fold="1" page="1" pageScale="1" pageWidth="827" pageHeight="1169" math="0" shadow="0">
      <root>
        <mxCell id="0" />
        <mxCell id="1" parent="0" />
        <mxCell id="f3tUCOnejnwcAm3bIY-e-19" value="" style="rounded=0;whiteSpace=wrap;html=1;" vertex="1" parent="1">
          <mxGeometry x="1352.25" y="-280" width="440" height="400" as="geometry" />
        </mxCell>
        <mxCell id="f3tUCOnejnwcAm3bIY-e-42" value="" style="rounded=1;whiteSpace=wrap;html=1;" vertex="1" parent="1">
          <mxGeometry x="1570" y="-90" width="120" height="60" as="geometry" />
        </mxCell>
        <mxCell id="f3tUCOnejnwcAm3bIY-e-41" value="" style="rounded=1;whiteSpace=wrap;html=1;" vertex="1" parent="1">
          <mxGeometry x="1570" y="-221.5" width="120" height="60" as="geometry" />
        </mxCell>
        <mxCell id="f3tUCOnejnwcAm3bIY-e-39" value="" style="rounded=1;whiteSpace=wrap;html=1;" vertex="1" parent="1">
          <mxGeometry x="1570" y="-160" width="120" height="60" as="geometry" />
        </mxCell>
        <mxCell id="f3tUCOnejnwcAm3bIY-e-23" value="" style="rounded=0;whiteSpace=wrap;html=1;" vertex="1" parent="1">
          <mxGeometry x="1350" y="-713" width="440" height="400" as="geometry" />
        </mxCell>
        <mxCell id="f3tUCOnejnwcAm3bIY-e-2" value="" style="rounded=0;whiteSpace=wrap;html=1;" vertex="1" parent="1">
          <mxGeometry x="827" y="-710" width="433" height="1630" as="geometry" />
        </mxCell>
        <mxCell id="YxJ8RS6wdSnqhcy0QSXc-33" value="" style="rounded=0;whiteSpace=wrap;html=1;" parent="1" vertex="1">
          <mxGeometry x="859" y="-578" width="370" height="125" as="geometry" />
        </mxCell>
        <mxCell id="YxJ8RS6wdSnqhcy0QSXc-2" value="Creating an online web-based multiplayer game:" style="text;html=1;strokeColor=none;fillColor=none;align=center;verticalAlign=middle;whiteSpace=wrap;rounded=0;fontSize=17;" parent="1" vertex="1">
          <mxGeometry x="948" y="-637.5" width="191" height="37.5" as="geometry" />
        </mxCell>
        <mxCell id="YxJ8RS6wdSnqhcy0QSXc-32" value="&lt;h1&gt;Networking and Architecturess&lt;/h1&gt;&lt;div&gt;&lt;ul&gt;&lt;li&gt;client server models&lt;/li&gt;&lt;li&gt;peer-to-peer connections&amp;nbsp;&lt;/li&gt;&lt;li&gt;latency reduction&lt;/li&gt;&lt;/ul&gt;&lt;/div&gt;" style="text;html=1;strokeColor=none;fillColor=none;spacing=5;spacingTop=-20;whiteSpace=wrap;overflow=hidden;rounded=0;" parent="1" vertex="1">
          <mxGeometry x="860" y="-578" width="400" height="117.5" as="geometry" />
        </mxCell>
        <mxCell id="YxJ8RS6wdSnqhcy0QSXc-36" value="" style="rounded=0;whiteSpace=wrap;html=1;" parent="1" vertex="1">
          <mxGeometry x="860" y="-433" width="370" height="125" as="geometry" />
        </mxCell>
        <mxCell id="YxJ8RS6wdSnqhcy0QSXc-37" value="" style="rounded=0;whiteSpace=wrap;html=1;" parent="1" vertex="1">
          <mxGeometry x="860" y="-288" width="370" height="125" as="geometry" />
        </mxCell>
        <mxCell id="YxJ8RS6wdSnqhcy0QSXc-38" value="" style="rounded=0;whiteSpace=wrap;html=1;" parent="1" vertex="1">
          <mxGeometry x="860" y="-138" width="370" height="125" as="geometry" />
        </mxCell>
        <mxCell id="YxJ8RS6wdSnqhcy0QSXc-39" value="" style="rounded=0;whiteSpace=wrap;html=1;" parent="1" vertex="1">
          <mxGeometry x="860" y="11.599999999999994" width="370" height="125" as="geometry" />
        </mxCell>
        <mxCell id="YxJ8RS6wdSnqhcy0QSXc-40" value="" style="rounded=0;whiteSpace=wrap;html=1;" parent="1" vertex="1">
          <mxGeometry x="860" y="162" width="370" height="125" as="geometry" />
        </mxCell>
        <mxCell id="YxJ8RS6wdSnqhcy0QSXc-41" value="" style="rounded=0;whiteSpace=wrap;html=1;" parent="1" vertex="1">
          <mxGeometry x="860" y="312" width="370" height="125" as="geometry" />
        </mxCell>
        <mxCell id="YxJ8RS6wdSnqhcy0QSXc-42" value="" style="rounded=0;whiteSpace=wrap;html=1;" parent="1" vertex="1">
          <mxGeometry x="859" y="612" width="370" height="125" as="geometry" />
        </mxCell>
        <mxCell id="YxJ8RS6wdSnqhcy0QSXc-43" value="" style="rounded=0;whiteSpace=wrap;html=1;" parent="1" vertex="1">
          <mxGeometry x="860" y="462" width="370" height="125" as="geometry" />
        </mxCell>
        <mxCell id="YxJ8RS6wdSnqhcy0QSXc-44" value="" style="rounded=0;whiteSpace=wrap;html=1;" parent="1" vertex="1">
          <mxGeometry x="859" y="762" width="370" height="125" as="geometry" />
        </mxCell>
        <mxCell id="YxJ8RS6wdSnqhcy0QSXc-45" value="&lt;h1&gt;WebSockets&lt;/h1&gt;&lt;div&gt;&lt;ul&gt;&lt;li&gt;real time communication&lt;/li&gt;&lt;li&gt;responsive&lt;/li&gt;&lt;li&gt;multiplayer experiences&lt;/li&gt;&lt;/ul&gt;&lt;/div&gt;" style="text;html=1;strokeColor=none;fillColor=none;spacing=5;spacingTop=-20;whiteSpace=wrap;overflow=hidden;rounded=0;" parent="1" vertex="1">
          <mxGeometry x="860" y="-433" width="369" height="120" as="geometry" />
        </mxCell>
        <mxCell id="YxJ8RS6wdSnqhcy0QSXc-46" value="&lt;h1&gt;Frameworks&lt;/h1&gt;&lt;div&gt;&lt;ul&gt;&lt;li&gt;Phaser.js&lt;/li&gt;&lt;li&gt;tools&lt;/li&gt;&lt;li&gt;development process&lt;/li&gt;&lt;/ul&gt;&lt;/div&gt;" style="text;html=1;strokeColor=none;fillColor=none;spacing=5;spacingTop=-20;whiteSpace=wrap;overflow=hidden;rounded=0;" parent="1" vertex="1">
          <mxGeometry x="860" y="-288" width="190" height="120" as="geometry" />
        </mxCell>
        <mxCell id="YxJ8RS6wdSnqhcy0QSXc-47" value="&lt;h1&gt;Security&lt;/h1&gt;&lt;div&gt;&lt;ul&gt;&lt;li&gt;authentication&lt;/li&gt;&lt;li&gt;authorization&lt;/li&gt;&lt;li&gt;data encryption&lt;/li&gt;&lt;/ul&gt;&lt;/div&gt;" style="text;html=1;strokeColor=none;fillColor=none;spacing=5;spacingTop=-20;whiteSpace=wrap;overflow=hidden;rounded=0;" parent="1" vertex="1">
          <mxGeometry x="860" y="-135.5" width="190" height="120" as="geometry" />
        </mxCell>
        <mxCell id="YxJ8RS6wdSnqhcy0QSXc-48" value="&lt;h1&gt;Databse Integration&lt;/h1&gt;&lt;div&gt;&lt;ul&gt;&lt;li&gt;real-time updates&lt;/li&gt;&lt;li&gt;store data player&lt;/li&gt;&lt;li&gt;managing in-game assets&lt;/li&gt;&lt;/ul&gt;&lt;/div&gt;" style="text;html=1;strokeColor=none;fillColor=none;spacing=5;spacingTop=-20;whiteSpace=wrap;overflow=hidden;rounded=0;" parent="1" vertex="1">
          <mxGeometry x="859" y="11.6" width="330" height="120" as="geometry" />
        </mxCell>
        <mxCell id="YxJ8RS6wdSnqhcy0QSXc-49" value="&lt;h1&gt;Scalability&lt;/h1&gt;&lt;div&gt;&lt;ul&gt;&lt;li&gt;strategies to scale game&lt;/li&gt;&lt;li&gt;load balances&lt;/li&gt;&lt;li&gt;server clusters&lt;/li&gt;&lt;li&gt;maintain performence&lt;/li&gt;&lt;/ul&gt;&lt;/div&gt;" style="text;html=1;strokeColor=none;fillColor=none;spacing=5;spacingTop=-20;whiteSpace=wrap;overflow=hidden;rounded=0;" parent="1" vertex="1">
          <mxGeometry x="860" y="164.5" width="190" height="120" as="geometry" />
        </mxCell>
        <mxCell id="YxJ8RS6wdSnqhcy0QSXc-50" value="&lt;h1&gt;Fron-/Backend Development&lt;/h1&gt;&lt;div&gt;&lt;ul&gt;&lt;li&gt;HTML, CSS and JavaScript&lt;/li&gt;&lt;li&gt;user interface&lt;/li&gt;&lt;li&gt;Node.js, Django, Flask&lt;/li&gt;&lt;li&gt;handeling game-logic&lt;/li&gt;&lt;/ul&gt;&lt;/div&gt;" style="text;html=1;strokeColor=none;fillColor=none;spacing=5;spacingTop=-20;whiteSpace=wrap;overflow=hidden;rounded=0;" parent="1" vertex="1">
          <mxGeometry x="860" y="312" width="490" height="110" as="geometry" />
        </mxCell>
        <mxCell id="YxJ8RS6wdSnqhcy0QSXc-51" value="&lt;h1&gt;Testing and Debugging&lt;/h1&gt;&lt;div&gt;&lt;ul&gt;&lt;li&gt;&lt;span style=&quot;background-color: initial;&quot;&gt;testing methodologies&lt;/span&gt;&lt;br&gt;&lt;/li&gt;&lt;li&gt;&lt;span style=&quot;background-color: initial;&quot;&gt;real-time environments&lt;/span&gt;&lt;/li&gt;&lt;li&gt;be prepared&lt;/li&gt;&lt;/ul&gt;&lt;/div&gt;" style="text;html=1;strokeColor=none;fillColor=none;spacing=5;spacingTop=-20;whiteSpace=wrap;overflow=hidden;rounded=0;" parent="1" vertex="1">
          <mxGeometry x="860" y="462" width="380" height="120" as="geometry" />
        </mxCell>
        <mxCell id="YxJ8RS6wdSnqhcy0QSXc-53" value="&lt;h1&gt;UX&lt;/h1&gt;&lt;div&gt;&lt;ul&gt;&lt;li&gt;engaging&lt;/li&gt;&lt;li&gt;intuitive user interface&lt;/li&gt;&lt;li&gt;smooth user experience&lt;/li&gt;&lt;/ul&gt;&lt;/div&gt;" style="text;html=1;strokeColor=none;fillColor=none;spacing=5;spacingTop=-20;whiteSpace=wrap;overflow=hidden;rounded=0;" parent="1" vertex="1">
          <mxGeometry x="860" y="612" width="190" height="120" as="geometry" />
        </mxCell>
        <mxCell id="YxJ8RS6wdSnqhcy0QSXc-54" value="&lt;h1&gt;Monetization&lt;/h1&gt;&lt;div&gt;&lt;ul&gt;&lt;li&gt;in-app purchases&lt;/li&gt;&lt;li&gt;ads&lt;/li&gt;&lt;li&gt;subscriptions&lt;/li&gt;&lt;/ul&gt;&lt;/div&gt;" style="text;html=1;strokeColor=none;fillColor=none;spacing=5;spacingTop=-20;whiteSpace=wrap;overflow=hidden;rounded=0;" parent="1" vertex="1">
          <mxGeometry x="860" y="764.5" width="190" height="120" as="geometry" />
        </mxCell>
        <mxCell id="f3tUCOnejnwcAm3bIY-e-3" value="Static Part" style="text;html=1;align=center;verticalAlign=middle;resizable=0;points=[];autosize=1;strokeColor=none;fillColor=none;" vertex="1" parent="1">
          <mxGeometry x="1010" y="-740" width="80" height="30" as="geometry" />
        </mxCell>
        <mxCell id="f3tUCOnejnwcAm3bIY-e-4" value="Check out the Dynamic Part" style="rounded=0;whiteSpace=wrap;html=1;" vertex="1" parent="1">
          <mxGeometry x="1160" y="-700" width="89" height="42.5" as="geometry" />
        </mxCell>
        <mxCell id="f3tUCOnejnwcAm3bIY-e-8" value="Creating an online web-based multiplayer game:" style="text;html=1;strokeColor=none;fillColor=none;align=center;verticalAlign=middle;whiteSpace=wrap;rounded=0;fontSize=17;" vertex="1" parent="1">
          <mxGeometry x="1474.5" y="-637.5" width="191" height="37.5" as="geometry" />
        </mxCell>
        <mxCell id="f3tUCOnejnwcAm3bIY-e-9" value="Login" style="rounded=0;whiteSpace=wrap;html=1;" vertex="1" parent="1">
          <mxGeometry x="1690" y="-700" width="89" height="42.5" as="geometry" />
        </mxCell>
        <mxCell id="f3tUCOnejnwcAm3bIY-e-10" value="Dynamic Part" style="text;html=1;align=center;verticalAlign=middle;resizable=0;points=[];autosize=1;strokeColor=none;fillColor=none;" vertex="1" parent="1">
          <mxGeometry x="1520" y="-800" width="100" height="30" as="geometry" />
        </mxCell>
        <mxCell id="f3tUCOnejnwcAm3bIY-e-11" value="Home Page" style="text;html=1;align=center;verticalAlign=middle;resizable=0;points=[];autosize=1;strokeColor=none;fillColor=none;" vertex="1" parent="1">
          <mxGeometry x="1525" y="-740" width="90" height="30" as="geometry" />
        </mxCell>
        <mxCell id="f3tUCOnejnwcAm3bIY-e-13" value="Host Game" style="rounded=1;whiteSpace=wrap;html=1;" vertex="1" parent="1">
          <mxGeometry x="1474.5" y="-570" width="195.5" height="50" as="geometry" />
        </mxCell>
        <mxCell id="f3tUCOnejnwcAm3bIY-e-14" value="Join Game" style="rounded=1;whiteSpace=wrap;html=1;" vertex="1" parent="1">
          <mxGeometry x="1474.5" y="-510.5" width="195.5" height="50" as="geometry" />
        </mxCell>
        <mxCell id="f3tUCOnejnwcAm3bIY-e-16" value="Instructions" style="rounded=1;whiteSpace=wrap;html=1;" vertex="1" parent="1">
          <mxGeometry x="1474.5" y="-453" width="195.5" height="50" as="geometry" />
        </mxCell>
        <mxCell id="f3tUCOnejnwcAm3bIY-e-17" value="Settings" style="rounded=1;whiteSpace=wrap;html=1;" vertex="1" parent="1">
          <mxGeometry x="1474.5" y="-395.5" width="195.5" height="50" as="geometry" />
        </mxCell>
        <mxCell id="f3tUCOnejnwcAm3bIY-e-20" value="Host Page" style="text;html=1;align=center;verticalAlign=middle;resizable=0;points=[];autosize=1;strokeColor=none;fillColor=none;" vertex="1" parent="1">
          <mxGeometry x="1519" y="-310" width="80" height="30" as="geometry" />
        </mxCell>
        <mxCell id="f3tUCOnejnwcAm3bIY-e-21" value="Toggleble Host Setting" style="rounded=1;whiteSpace=wrap;html=1;" vertex="1" parent="1">
          <mxGeometry x="1440" y="-223" width="120" height="60" as="geometry" />
        </mxCell>
        <mxCell id="f3tUCOnejnwcAm3bIY-e-22" value="Host Game" style="text;html=1;strokeColor=none;fillColor=none;align=center;verticalAlign=middle;whiteSpace=wrap;rounded=0;fontSize=17;" vertex="1" parent="1">
          <mxGeometry x="1470" y="-270" width="191" height="37.5" as="geometry" />
        </mxCell>
        <mxCell id="f3tUCOnejnwcAm3bIY-e-24" value="On" style="rounded=0;whiteSpace=wrap;html=1;" vertex="1" parent="1">
          <mxGeometry x="1580" y="-207.5" width="50" height="32" as="geometry" />
        </mxCell>
        <mxCell id="f3tUCOnejnwcAm3bIY-e-25" value="Off" style="rounded=0;whiteSpace=wrap;html=1;" vertex="1" parent="1">
          <mxGeometry x="1630" y="-207.5" width="50" height="32" as="geometry" />
        </mxCell>
        <mxCell id="f3tUCOnejnwcAm3bIY-e-26" value="Host Setting with Value" style="rounded=1;whiteSpace=wrap;html=1;" vertex="1" parent="1">
          <mxGeometry x="1440" y="-160" width="120" height="60" as="geometry" />
        </mxCell>
        <mxCell id="f3tUCOnejnwcAm3bIY-e-27" value="Value" style="rounded=0;whiteSpace=wrap;html=1;" vertex="1" parent="1">
          <mxGeometry x="1580" y="-150" width="100" height="40" as="geometry" />
        </mxCell>
        <mxCell id="f3tUCOnejnwcAm3bIY-e-28" value="Copy invite Link" style="rounded=0;whiteSpace=wrap;html=1;" vertex="1" parent="1">
          <mxGeometry x="1370" y="60" width="100" height="40" as="geometry" />
        </mxCell>
        <mxCell id="f3tUCOnejnwcAm3bIY-e-29" value="Host Setting with type choice" style="rounded=1;whiteSpace=wrap;html=1;" vertex="1" parent="1">
          <mxGeometry x="1440" y="-90" width="120" height="60" as="geometry" />
        </mxCell>
        <mxCell id="f3tUCOnejnwcAm3bIY-e-35" value="Start Game" style="rounded=0;whiteSpace=wrap;html=1;" vertex="1" parent="1">
          <mxGeometry x="1679" y="60" width="100" height="40" as="geometry" />
        </mxCell>
        <mxCell id="f3tUCOnejnwcAm3bIY-e-43" value="Dropdown menu" style="rounded=0;whiteSpace=wrap;html=1;" vertex="1" parent="1">
          <mxGeometry x="1579" y="-80" width="100" height="40" as="geometry" />
        </mxCell>
        <mxCell id="f3tUCOnejnwcAm3bIY-e-45" value="" style="rounded=0;whiteSpace=wrap;html=1;" vertex="1" parent="1">
          <mxGeometry x="1965.88" y="-359.6" width="440" height="460.8" as="geometry" />
        </mxCell>
        <mxCell id="f3tUCOnejnwcAm3bIY-e-46" value="Main Game" style="text;html=1;align=center;verticalAlign=middle;resizable=0;points=[];autosize=1;strokeColor=none;fillColor=none;" vertex="1" parent="1">
          <mxGeometry x="2198.25" y="-389.6" width="90" height="30" as="geometry" />
        </mxCell>
        <mxCell id="f3tUCOnejnwcAm3bIY-e-47" value="Player Scoreboard" style="swimlane;fontStyle=0;childLayout=stackLayout;horizontal=1;startSize=30;horizontalStack=0;resizeParent=1;resizeParentMax=0;resizeLast=0;collapsible=1;marginBottom=0;whiteSpace=wrap;html=1;" vertex="1" parent="1">
          <mxGeometry x="1965.88" y="-359.6" width="140" height="120" as="geometry" />
        </mxCell>
        <mxCell id="f3tUCOnejnwcAm3bIY-e-48" value="Player 1: Score" style="text;strokeColor=none;fillColor=none;align=left;verticalAlign=middle;spacingLeft=4;spacingRight=4;overflow=hidden;points=[[0,0.5],[1,0.5]];portConstraint=eastwest;rotatable=0;whiteSpace=wrap;html=1;" vertex="1" parent="f3tUCOnejnwcAm3bIY-e-47">
          <mxGeometry y="30" width="140" height="30" as="geometry" />
        </mxCell>
        <mxCell id="f3tUCOnejnwcAm3bIY-e-49" value="Player 2: Score" style="text;strokeColor=none;fillColor=none;align=left;verticalAlign=middle;spacingLeft=4;spacingRight=4;overflow=hidden;points=[[0,0.5],[1,0.5]];portConstraint=eastwest;rotatable=0;whiteSpace=wrap;html=1;" vertex="1" parent="f3tUCOnejnwcAm3bIY-e-47">
          <mxGeometry y="60" width="140" height="30" as="geometry" />
        </mxCell>
        <mxCell id="f3tUCOnejnwcAm3bIY-e-50" value="Player 3: Score" style="text;strokeColor=none;fillColor=none;align=left;verticalAlign=middle;spacingLeft=4;spacingRight=4;overflow=hidden;points=[[0,0.5],[1,0.5]];portConstraint=eastwest;rotatable=0;whiteSpace=wrap;html=1;" vertex="1" parent="f3tUCOnejnwcAm3bIY-e-47">
          <mxGeometry y="90" width="140" height="30" as="geometry" />
        </mxCell>
        <mxCell id="f3tUCOnejnwcAm3bIY-e-53" value="" style="ellipse;whiteSpace=wrap;html=1;" vertex="1" parent="1">
          <mxGeometry x="2161.75" y="-13" width="48.25" height="21.6" as="geometry" />
        </mxCell>
        <mxCell id="f3tUCOnejnwcAm3bIY-e-51" value="Player 1" style="shape=umlActor;verticalLabelPosition=bottom;verticalAlign=top;html=1;outlineConnect=0;" vertex="1" parent="1">
          <mxGeometry x="2171.75" y="-60" width="28.25" height="60" as="geometry" />
        </mxCell>
        <mxCell id="f3tUCOnejnwcAm3bIY-e-52" value="4" style="shape=cube;whiteSpace=wrap;html=1;boundedLbl=1;backgroundOutline=1;darkOpacity=0.05;darkOpacity2=0.1;" vertex="1" parent="1">
          <mxGeometry x="2150" y="-130" width="60" height="60" as="geometry" />
        </mxCell>
        <mxCell id="f3tUCOnejnwcAm3bIY-e-55" value="" style="ellipse;whiteSpace=wrap;html=1;" vertex="1" parent="1">
          <mxGeometry x="2111.75" y="11.6" width="48.25" height="21.6" as="geometry" />
        </mxCell>
        <mxCell id="f3tUCOnejnwcAm3bIY-e-56" value="" style="ellipse;whiteSpace=wrap;html=1;" vertex="1" parent="1">
          <mxGeometry x="2043" y="8.6" width="48.25" height="21.6" as="geometry" />
        </mxCell>
        <mxCell id="f3tUCOnejnwcAm3bIY-e-57" value="" style="ellipse;whiteSpace=wrap;html=1;" vertex="1" parent="1">
          <mxGeometry x="1994.75" y="-51.6" width="48.25" height="21.6" as="geometry" />
        </mxCell>
        <mxCell id="f3tUCOnejnwcAm3bIY-e-58" value="" style="ellipse;whiteSpace=wrap;html=1;" vertex="1" parent="1">
          <mxGeometry x="2000.87" y="-16.200000000000003" width="48.25" height="21.6" as="geometry" />
        </mxCell>
        <mxCell id="f3tUCOnejnwcAm3bIY-e-59" value="" style="ellipse;whiteSpace=wrap;html=1;" vertex="1" parent="1">
          <mxGeometry x="2020" y="-80" width="48.25" height="21.6" as="geometry" />
        </mxCell>
        <mxCell id="f3tUCOnejnwcAm3bIY-e-60" value="" style="ellipse;whiteSpace=wrap;html=1;" vertex="1" parent="1">
          <mxGeometry x="2049.12" y="-110" width="48.25" height="21.6" as="geometry" />
        </mxCell>
        <mxCell id="f3tUCOnejnwcAm3bIY-e-61" value="" style="ellipse;whiteSpace=wrap;html=1;" vertex="1" parent="1">
          <mxGeometry x="2101.75" y="-181.6" width="48.25" height="21.6" as="geometry" />
        </mxCell>
        <mxCell id="f3tUCOnejnwcAm3bIY-e-62" value="" style="ellipse;whiteSpace=wrap;html=1;" vertex="1" parent="1">
          <mxGeometry x="2090" y="-140" width="48.25" height="21.6" as="geometry" />
        </mxCell>
        <mxCell id="f3tUCOnejnwcAm3bIY-e-63" value="" style="ellipse;whiteSpace=wrap;html=1;" vertex="1" parent="1">
          <mxGeometry x="2160" y="-157.1" width="48.25" height="21.6" as="geometry" />
        </mxCell>
        <mxCell id="f3tUCOnejnwcAm3bIY-e-64" value="" style="ellipse;whiteSpace=wrap;html=1;" vertex="1" parent="1">
          <mxGeometry x="2220" y="-171.6" width="48.25" height="21.6" as="geometry" />
        </mxCell>
        <mxCell id="f3tUCOnejnwcAm3bIY-e-65" value="" style="ellipse;whiteSpace=wrap;html=1;" vertex="1" parent="1">
          <mxGeometry x="2250" y="-203.8" width="48.25" height="21.6" as="geometry" />
        </mxCell>
        <mxCell id="f3tUCOnejnwcAm3bIY-e-66" value="" style="ellipse;whiteSpace=wrap;html=1;" vertex="1" parent="1">
          <mxGeometry x="2145.87" y="-221.5" width="48.25" height="21.6" as="geometry" />
        </mxCell>
        <mxCell id="f3tUCOnejnwcAm3bIY-e-67" value="" style="ellipse;whiteSpace=wrap;html=1;" vertex="1" parent="1">
          <mxGeometry x="2220" y="-238.8" width="48.25" height="21.6" as="geometry" />
        </mxCell>
        <mxCell id="f3tUCOnejnwcAm3bIY-e-68" value="" style="ellipse;whiteSpace=wrap;html=1;" vertex="1" parent="1">
          <mxGeometry x="2280" y="-254.1" width="48.25" height="21.6" as="geometry" />
        </mxCell>
        <mxCell id="f3tUCOnejnwcAm3bIY-e-69" value="" style="ellipse;whiteSpace=wrap;html=1;" vertex="1" parent="1">
          <mxGeometry x="2328.25" y="-238.8" width="48.25" height="21.6" as="geometry" />
        </mxCell>
        <mxCell id="f3tUCOnejnwcAm3bIY-e-70" value="" style="ellipse;whiteSpace=wrap;html=1;" vertex="1" parent="1">
          <mxGeometry x="2341.75" y="-207.5" width="48.25" height="21.6" as="geometry" />
        </mxCell>
        <mxCell id="f3tUCOnejnwcAm3bIY-e-71" value="" style="ellipse;whiteSpace=wrap;html=1;" vertex="1" parent="1">
          <mxGeometry x="2330" y="-178.7" width="48.25" height="21.6" as="geometry" />
        </mxCell>
        <mxCell id="f3tUCOnejnwcAm3bIY-e-72" value="Player 3" style="shape=umlActor;verticalLabelPosition=bottom;verticalAlign=top;html=1;outlineConnect=0;" vertex="1" parent="1">
          <mxGeometry x="2097.37" y="-185.9" width="30" height="60" as="geometry" />
        </mxCell>
        <mxCell id="f3tUCOnejnwcAm3bIY-e-75" value="Player 2" style="shape=umlActor;verticalLabelPosition=bottom;verticalAlign=top;html=1;outlineConnect=0;fontStyle=1" vertex="1" parent="1">
          <mxGeometry x="2260" y="-253" width="28.25" height="60" as="geometry" />
        </mxCell>
      </root>
    </mxGraphModel>
  </diagram>
</mxfile>
